<?xml version="1.0" encoding="utf-8"?>
<svg id="Icon" viewBox="0 0 64 64" xmlns="http://www.w3.org/2000/svg">
  <title/>
  <path d="M49,63H18.294C16.475,63,15,61.209,15,59V1H45.706C47.525,1,49,2.791,49,5V8" style="fill: none; stroke-linecap: round; stroke-miterlimit: 10; stroke-width: 2px; stroke: rgb(0, 0, 0);"/>
  <path d="M10,1h5a0,0,0,0,1,0,0V9a0,0,0,0,1,0,0H6A0,0,0,0,1,6,9V5A4,4,0,0,1,10,1Z" style="fill: none; stroke-linecap: round; stroke-miterlimit: 10; stroke-width: 2px; stroke: rgb(0, 0, 0);"/>
  <path d="M24,54v5a4,4,0,0,1-4,4H18" style="fill: none; stroke-miterlimit: 10; stroke-width: 2px; stroke: rgb(0, 0, 0);"/>
  <path d="M51,55h7v4a4,4,0,0,1-4,4H48" style="fill: none; stroke-miterlimit: 10; stroke-width: 2px; stroke: rgb(0, 0, 0);"/>
  <line style="fill: none; stroke-miterlimit: 10; stroke-width: 2px; stroke: rgb(0, 0, 0);" x1="24" x2="52" y1="55" y2="55"/>
  <polygon points="51 41 49 48 47 41 47 17 51 17 51 41" style="fill: none; stroke-linecap: round; stroke-linejoin: round; stroke-width: 2px; stroke: rgb(0, 0, 0);"/>
  <path d="M49,9h0a2,2,0,0,1,2,2v3a0,0,0,0,1,0,0H47a0,0,0,0,1,0,0V11A2,2,0,0,1,49,9Z" style="fill: none; stroke-linecap: round; stroke-miterlimit: 10; stroke-width: 2px; stroke: rgb(0, 0, 0);"/>
  <line style="fill: none; stroke-linecap: round; stroke-miterlimit: 10; stroke-width: 2px; stroke: rgb(0, 0, 0);" x1="47" x2="51" y1="40" y2="40"/>
  <line style="stroke-linecap: round; stroke-miterlimit: 10; stroke-width: 2px; fill: rgb(186, 218, 85); stroke: rgb(0, 0, 0);" x1="49" x2="49" y1="47" y2="55"/>
  <path d="M20,59H19V8a2,2,0,0,1,2-2H45" style="fill: none; stroke-linecap: round; stroke-miterlimit: 10; stroke-width: 2px; stroke: rgb(0, 0, 0);"/>
  <path style="fill: rgb(216, 216, 216); paint-order: fill; stroke-linecap: round; stroke-linejoin: round; stroke: rgb(0, 0, 0); fill-opacity: 0;" d="M 23 16.023 C 23 16.023 26.831 13.19 28.696 13.035 C 30.598 12.877 34.898 15.996 36.579 15.88 C 37.951 15.785 40.931 14.151 43 13"/>
  <path style="fill: rgb(216, 216, 216); paint-order: fill; stroke-linecap: round; stroke-linejoin: round; stroke: rgb(0, 0, 0); fill-opacity: 0;" d="M 23 24.023 C 23 24.023 26.831 21.19 28.696 21.035 C 30.598 20.877 34.898 23.996 36.579 23.88 C 37.951 23.785 40.931 22.151 43 21"/>
  <path style="fill: rgb(216, 216, 216); paint-order: fill; stroke-linecap: round; stroke-linejoin: round; stroke: rgb(0, 0, 0); fill-opacity: 0;" d="M 23 40.023 C 23 40.023 26.831 37.19 28.696 37.035 C 30.598 36.877 34.898 39.996 36.579 39.88 C 37.951 39.785 40.931 38.151 43 37"/>
  <path style="fill: rgb(216, 216, 216); paint-order: fill; stroke-linecap: round; stroke-linejoin: round; stroke: rgb(0, 0, 0); fill-opacity: 0;" d="M 23 32.023 C 23 32.023 26.831 29.19 28.696 29.035 C 30.598 28.877 34.898 31.996 36.579 31.88 C 37.951 31.785 40.931 30.151 43 29"/>
  <path style="fill: rgb(216, 216, 216); paint-order: fill; stroke-linecap: round; stroke-linejoin: round; stroke: rgb(0, 0, 0); fill-opacity: 0;" d="M 23.037 48.023 C 23.037 48.023 26.868 45.19 28.733 45.035 C 30.635 44.877 34.935 47.996 36.616 47.88 C 37.988 47.785 40.968 46.151 43.037 45"/>
</svg>